<?xml version="1.0" standalone="no"?>
<!DOCTYPE svg PUBLIC "-//W3C//DTD SVG 20010904//EN"
 "http://www.w3.org/TR/2001/REC-SVG-20010904/DTD/svg10.dtd">
<svg version="1.0" xmlns="http://www.w3.org/2000/svg"
 width="260.000000pt" height="260.000000pt" viewBox="0 0 260.000000 260.000000"
 preserveAspectRatio="xMidYMid meet">
<metadata>
Created by potrace 1.11, written by Peter Selinger 2001-2013
</metadata>
<g transform="translate(0.000000,260.000000) scale(0.100000,-0.100000)"
fill="#000000" stroke="none">
<path d="M0 1300 l0 -1300 1300 0 1300 0 0 1300 0 1300 -1300 0 -1300 0 0
-1300z m804 1104 c7 -17 -17 -29 -39 -20 -12 4 -14 10 -5 25 11 22 35 19 44
-5z m1461 -340 c0 -26 -31 -30 -38 -5 -5 20 8 32 28 27 6 -2 10 -11 10 -22z
m-238 -240 c7 -18 -14 -35 -34 -27 -7 3 -13 14 -13 24 0 24 38 26 47 3z
m-1510 -219 c0 -6 -6 -12 -12 -12 -6 0 -12 6 -12 12 0 6 6 12 12 12 6 0 12 -6
12 -12z m1622 -14 c12 -8 12 -12 2 -25 -17 -20 -40 -10 -34 15 6 21 11 23 32
10z m-484 -71 c3 -5 -1 -10 -10 -10 -10 0 -13 -5 -9 -12 4 -7 3 -8 -4 -4 -17
10 -15 36 2 36 8 0 18 -4 21 -10z m-1155 -40 c0 -13 -26 -19 -40 -10 -11 7
-11 11 -1 24 11 12 17 14 27 5 8 -6 14 -15 14 -19z m477 -17 c-4 -3 -1 -13 6
-22 11 -14 10 -14 -5 -2 -10 7 -18 10 -18 7 0 -4 -5 -4 -11 0 -8 4 -7 9 2 15
16 10 35 12 26 2z m1533 -265 c0 -6 -6 -5 -15 2 -8 7 -15 14 -15 16 0 2 7 1
15 -2 8 -4 15 -11 15 -16z m-2150 -568 c-12 -8 -12 -10 -1 -10 8 0 12 -3 8 -6
-9 -9 -28 6 -22 17 4 5 12 9 18 9 7 0 6 -4 -3 -10z m652 -84 c9 -14 -1 -34
-17 -32 -21 3 -28 13 -22 31 7 16 27 17 39 1z"/>
</g>
</svg>
